<mxfile host="app.diagrams.net" modified="2023-01-13T02:45:55.425Z" agent="5.0 (Windows NT 10.0; Win64; x64) AppleWebKit/537.36 (KHTML, like Gecko) Chrome/108.0.0.0 Safari/537.36" etag="riLfNCGctZDy5jaUAoPn" version="20.7.4" type="github">
  <diagram id="kgpKYQtTHZ0yAKxKKP6v" name="Page-1">
    <mxGraphModel dx="1434" dy="756" grid="1" gridSize="10" guides="1" tooltips="1" connect="1" arrows="1" fold="1" page="1" pageScale="1" pageWidth="850" pageHeight="1100" math="0" shadow="0">
      <root>
        <mxCell id="0" />
        <mxCell id="1" parent="0" />
        <mxCell id="3nuBFxr9cyL0pnOWT2aG-1" value="前端" style="shape=umlLifeline;perimeter=lifelinePerimeter;container=1;collapsible=0;recursiveResize=0;rounded=0;shadow=0;strokeWidth=1;fillStyle=auto;" parent="1" vertex="1">
          <mxGeometry x="120" y="30" width="100" height="750" as="geometry" />
        </mxCell>
        <mxCell id="3nuBFxr9cyL0pnOWT2aG-2" value="" style="points=[];perimeter=orthogonalPerimeter;rounded=0;shadow=0;strokeWidth=1;" parent="3nuBFxr9cyL0pnOWT2aG-1" vertex="1">
          <mxGeometry x="45" y="50" width="10" height="660" as="geometry" />
        </mxCell>
        <mxCell id="IYim6jslfs8QUYRf8JOQ-46" value="查询进度" style="html=1;verticalAlign=bottom;endArrow=block;rounded=0;entryX=0.5;entryY=0.567;entryDx=0;entryDy=0;entryPerimeter=0;" edge="1" parent="3nuBFxr9cyL0pnOWT2aG-1" target="3nuBFxr9cyL0pnOWT2aG-6">
          <mxGeometry width="80" relative="1" as="geometry">
            <mxPoint x="60" y="580" as="sourcePoint" />
            <mxPoint x="140" y="580" as="targetPoint" />
          </mxGeometry>
        </mxCell>
        <mxCell id="IYim6jslfs8QUYRf8JOQ-48" value="返回结果" style="html=1;verticalAlign=bottom;endArrow=open;dashed=1;endSize=8;exitX=0.5;exitY=0.7;exitDx=0;exitDy=0;exitPerimeter=0;" edge="1" parent="3nuBFxr9cyL0pnOWT2aG-1" source="3nuBFxr9cyL0pnOWT2aG-6">
          <mxGeometry relative="1" as="geometry">
            <mxPoint x="130" y="620" as="sourcePoint" />
            <mxPoint x="50" y="620" as="targetPoint" />
          </mxGeometry>
        </mxCell>
        <mxCell id="3nuBFxr9cyL0pnOWT2aG-5" value="应用" style="shape=umlLifeline;perimeter=lifelinePerimeter;container=1;collapsible=0;recursiveResize=0;rounded=0;shadow=0;strokeWidth=1;" parent="1" vertex="1">
          <mxGeometry x="260" y="30" width="100" height="760" as="geometry" />
        </mxCell>
        <mxCell id="3nuBFxr9cyL0pnOWT2aG-6" value="" style="points=[];perimeter=orthogonalPerimeter;rounded=0;shadow=0;strokeWidth=1;" parent="3nuBFxr9cyL0pnOWT2aG-5" vertex="1">
          <mxGeometry x="45" y="410" width="10" height="300" as="geometry" />
        </mxCell>
        <mxCell id="IYim6jslfs8QUYRf8JOQ-45" value="更新请求进度" style="html=1;verticalAlign=bottom;endArrow=open;dashed=1;endSize=8;rounded=0;exitX=0.5;exitY=0.423;exitDx=0;exitDy=0;exitPerimeter=0;" edge="1" parent="3nuBFxr9cyL0pnOWT2aG-5" source="IYim6jslfs8QUYRf8JOQ-2">
          <mxGeometry relative="1" as="geometry">
            <mxPoint x="140" y="540" as="sourcePoint" />
            <mxPoint x="60" y="540" as="targetPoint" />
          </mxGeometry>
        </mxCell>
        <mxCell id="IYim6jslfs8QUYRf8JOQ-49" value="" style="html=1;points=[];perimeter=orthogonalPerimeter;fillStyle=auto;" vertex="1" parent="3nuBFxr9cyL0pnOWT2aG-5">
          <mxGeometry x="45" y="60" width="10" height="320" as="geometry" />
        </mxCell>
        <mxCell id="IYim6jslfs8QUYRf8JOQ-62" value="组装数据源信息" style="edgeStyle=orthogonalEdgeStyle;html=1;align=left;spacingLeft=2;endArrow=block;rounded=0;entryX=1;entryY=0;" edge="1" parent="3nuBFxr9cyL0pnOWT2aG-5">
          <mxGeometry relative="1" as="geometry">
            <mxPoint x="55" y="70" as="sourcePoint" />
            <Array as="points">
              <mxPoint x="85" y="70" />
            </Array>
            <mxPoint x="60" y="90" as="targetPoint" />
          </mxGeometry>
        </mxCell>
        <mxCell id="3nuBFxr9cyL0pnOWT2aG-8" value="HTTP: 数据源导入请求" style="verticalAlign=bottom;endArrow=block;shadow=0;strokeWidth=1;" parent="1" source="IYim6jslfs8QUYRf8JOQ-49" target="IYim6jslfs8QUYRf8JOQ-3" edge="1">
          <mxGeometry relative="1" as="geometry">
            <mxPoint x="320" y="180" as="sourcePoint" />
            <Array as="points">
              <mxPoint x="350" y="130" />
            </Array>
          </mxGeometry>
        </mxCell>
        <mxCell id="IYim6jslfs8QUYRf8JOQ-1" value="MQ" style="shape=umlLifeline;perimeter=lifelinePerimeter;container=1;collapsible=0;recursiveResize=0;rounded=0;shadow=0;strokeWidth=1;" vertex="1" parent="1">
          <mxGeometry x="410" y="30" width="100" height="740" as="geometry" />
        </mxCell>
        <mxCell id="IYim6jslfs8QUYRf8JOQ-2" value="" style="points=[];perimeter=orthogonalPerimeter;rounded=0;shadow=0;strokeWidth=1;" vertex="1" parent="IYim6jslfs8QUYRf8JOQ-1">
          <mxGeometry x="45" y="430" width="10" height="260" as="geometry" />
        </mxCell>
        <mxCell id="IYim6jslfs8QUYRf8JOQ-3" value="文件适配器 I" style="shape=umlLifeline;perimeter=lifelinePerimeter;container=1;collapsible=0;recursiveResize=0;rounded=0;shadow=0;strokeWidth=1;" vertex="1" parent="1">
          <mxGeometry x="540" y="30" width="100" height="720" as="geometry" />
        </mxCell>
        <mxCell id="IYim6jslfs8QUYRf8JOQ-4" value="" style="points=[];perimeter=orthogonalPerimeter;rounded=0;shadow=0;strokeWidth=1;" vertex="1" parent="IYim6jslfs8QUYRf8JOQ-3">
          <mxGeometry x="45" y="100" width="10" height="560" as="geometry" />
        </mxCell>
        <mxCell id="IYim6jslfs8QUYRf8JOQ-12" value="计算该副本&lt;br&gt;当前存储能否&lt;br&gt;完成请求" style="edgeStyle=orthogonalEdgeStyle;html=1;align=left;spacingLeft=2;endArrow=block;rounded=0;" edge="1" target="IYim6jslfs8QUYRf8JOQ-4" parent="IYim6jslfs8QUYRf8JOQ-3">
          <mxGeometry relative="1" as="geometry">
            <mxPoint x="50" y="110" as="sourcePoint" />
            <Array as="points">
              <mxPoint x="80" y="110" />
              <mxPoint x="80" y="160" />
            </Array>
            <mxPoint x="55" y="130" as="targetPoint" />
          </mxGeometry>
        </mxCell>
        <mxCell id="IYim6jslfs8QUYRf8JOQ-32" value="内部转发至其他副本" style="html=1;verticalAlign=bottom;endArrow=block;rounded=0;" edge="1" parent="IYim6jslfs8QUYRf8JOQ-3" target="IYim6jslfs8QUYRf8JOQ-6">
          <mxGeometry width="80" relative="1" as="geometry">
            <mxPoint x="60" y="230" as="sourcePoint" />
            <mxPoint x="140" y="230" as="targetPoint" />
          </mxGeometry>
        </mxCell>
        <mxCell id="IYim6jslfs8QUYRf8JOQ-43" value="send msg：单文件导入成功" style="html=1;verticalAlign=bottom;endArrow=block;rounded=0;" edge="1" parent="IYim6jslfs8QUYRf8JOQ-3" source="IYim6jslfs8QUYRf8JOQ-4">
          <mxGeometry width="80" relative="1" as="geometry">
            <mxPoint y="480" as="sourcePoint" />
            <mxPoint x="-80" y="480" as="targetPoint" />
          </mxGeometry>
        </mxCell>
        <mxCell id="IYim6jslfs8QUYRf8JOQ-64" value="" style="html=1;points=[];perimeter=orthogonalPerimeter;fillStyle=auto;" vertex="1" parent="IYim6jslfs8QUYRf8JOQ-3">
          <mxGeometry x="55" y="380" width="10" height="160" as="geometry" />
        </mxCell>
        <mxCell id="IYim6jslfs8QUYRf8JOQ-65" value="异步处理&lt;br&gt;下载上传逻辑" style="edgeStyle=orthogonalEdgeStyle;html=1;align=left;spacingLeft=2;endArrow=block;rounded=0;entryX=1;entryY=0;" edge="1" target="IYim6jslfs8QUYRf8JOQ-64" parent="IYim6jslfs8QUYRf8JOQ-3">
          <mxGeometry x="0.0667" y="10" relative="1" as="geometry">
            <mxPoint x="60" y="360" as="sourcePoint" />
            <Array as="points">
              <mxPoint x="90" y="360" />
            </Array>
            <mxPoint as="offset" />
          </mxGeometry>
        </mxCell>
        <mxCell id="IYim6jslfs8QUYRf8JOQ-5" value="文件适配器 N" style="shape=umlLifeline;perimeter=lifelinePerimeter;container=1;collapsible=0;recursiveResize=0;rounded=0;shadow=0;strokeWidth=1;" vertex="1" parent="1">
          <mxGeometry x="680" y="30" width="100" height="720" as="geometry" />
        </mxCell>
        <mxCell id="IYim6jslfs8QUYRf8JOQ-6" value="" style="points=[];perimeter=orthogonalPerimeter;rounded=0;shadow=0;strokeWidth=1;" vertex="1" parent="IYim6jslfs8QUYRf8JOQ-5">
          <mxGeometry x="45" y="100" width="10" height="570" as="geometry" />
        </mxCell>
        <mxCell id="IYim6jslfs8QUYRf8JOQ-34" value="返回 req_id" style="html=1;verticalAlign=bottom;endArrow=open;dashed=1;endSize=8;rounded=0;exitX=-0.1;exitY=0.43;exitDx=0;exitDy=0;exitPerimeter=0;" edge="1" parent="1" source="IYim6jslfs8QUYRf8JOQ-6" target="3nuBFxr9cyL0pnOWT2aG-5">
          <mxGeometry relative="1" as="geometry">
            <mxPoint x="730" y="430" as="sourcePoint" />
            <mxPoint x="310" y="430" as="targetPoint" />
          </mxGeometry>
        </mxCell>
        <mxCell id="IYim6jslfs8QUYRf8JOQ-41" value="订阅导入进度TOPIC" style="html=1;verticalAlign=bottom;endArrow=block;rounded=0;exitX=0.5;exitY=0.1;exitDx=0;exitDy=0;exitPerimeter=0;" edge="1" parent="1" source="3nuBFxr9cyL0pnOWT2aG-6" target="IYim6jslfs8QUYRf8JOQ-2">
          <mxGeometry width="80" relative="1" as="geometry">
            <mxPoint x="320" y="520" as="sourcePoint" />
            <mxPoint x="460" y="520" as="targetPoint" />
          </mxGeometry>
        </mxCell>
        <mxCell id="IYim6jslfs8QUYRf8JOQ-44" value="send mg：全部完成" style="html=1;verticalAlign=bottom;endArrow=block;rounded=0;entryX=0.5;entryY=0.346;entryDx=0;entryDy=0;entryPerimeter=0;" edge="1" parent="1" target="IYim6jslfs8QUYRf8JOQ-2">
          <mxGeometry width="80" relative="1" as="geometry">
            <mxPoint x="580" y="550" as="sourcePoint" />
            <mxPoint x="581" y="590" as="targetPoint" />
          </mxGeometry>
        </mxCell>
        <mxCell id="IYim6jslfs8QUYRf8JOQ-50" value="发起导入请求" style="html=1;verticalAlign=bottom;endArrow=block;entryX=0;entryY=0;rounded=0;exitX=0.5;exitY=0.016;exitDx=0;exitDy=0;exitPerimeter=0;" edge="1" target="IYim6jslfs8QUYRf8JOQ-49" parent="1" source="3nuBFxr9cyL0pnOWT2aG-2">
          <mxGeometry relative="1" as="geometry">
            <mxPoint x="235" y="160" as="sourcePoint" />
          </mxGeometry>
        </mxCell>
        <mxCell id="IYim6jslfs8QUYRf8JOQ-51" value="返回请求ID" style="html=1;verticalAlign=bottom;endArrow=open;dashed=1;exitX=0;exitY=0.95;rounded=0;entryX=0.5;entryY=0.487;entryDx=0;entryDy=0;entryPerimeter=0;" edge="1" source="IYim6jslfs8QUYRf8JOQ-49" parent="1" target="3nuBFxr9cyL0pnOWT2aG-1">
          <mxGeometry relative="1" as="geometry">
            <mxPoint x="240" y="542.1999999999998" as="targetPoint" />
          </mxGeometry>
        </mxCell>
        <mxCell id="IYim6jslfs8QUYRf8JOQ-33" value="满足则返回req_id" style="html=1;verticalAlign=bottom;endArrow=open;dashed=1;endSize=8;rounded=0;exitX=-0.2;exitY=0.268;exitDx=0;exitDy=0;exitPerimeter=0;entryX=0.9;entryY=0.272;entryDx=0;entryDy=0;entryPerimeter=0;" edge="1" parent="1" source="IYim6jslfs8QUYRf8JOQ-6" target="IYim6jslfs8QUYRf8JOQ-4">
          <mxGeometry relative="1" as="geometry">
            <mxPoint x="680" y="290" as="sourcePoint" />
            <mxPoint x="600" y="290" as="targetPoint" />
          </mxGeometry>
        </mxCell>
        <mxCell id="IYim6jslfs8QUYRf8JOQ-17" value="opt：未满足要求" style="shape=umlFrame;whiteSpace=wrap;html=1;fillStyle=auto;" vertex="1" parent="1">
          <mxGeometry x="530" y="200" width="260" height="150" as="geometry" />
        </mxCell>
      </root>
    </mxGraphModel>
  </diagram>
</mxfile>
